<mxfile host="app.diagrams.net" modified="2022-01-19T19:26:30.733Z" agent="5.0 (Windows)" etag="S_DNHuoxCJCx-bc_7EF6" version="16.2.7" type="github">
  <diagram id="kgpKYQtTHZ0yAKxKKP6v" name="Page-1">
    <mxGraphModel dx="1632" dy="351" grid="1" gridSize="10" guides="1" tooltips="1" connect="1" arrows="1" fold="1" page="1" pageScale="1" pageWidth="850" pageHeight="1100" math="0" shadow="0">
      <root>
        <mxCell id="0" />
        <mxCell id="1" parent="0" />
        <mxCell id="3nuBFxr9cyL0pnOWT2aG-1" value=":Location Service" style="shape=umlLifeline;perimeter=lifelinePerimeter;container=1;collapsible=0;recursiveResize=0;rounded=0;shadow=0;strokeWidth=1;whiteSpace=wrap;fillColor=#fff2cc;strokeColor=#A30000;" parent="1" vertex="1">
          <mxGeometry x="70" y="10" width="60" height="350" as="geometry" />
        </mxCell>
        <mxCell id="3nuBFxr9cyL0pnOWT2aG-3" value="1. User requests to&#xa;change the location" style="verticalAlign=bottom;startArrow=none;endArrow=block;startSize=8;shadow=0;strokeWidth=1;startFill=0;" parent="3nuBFxr9cyL0pnOWT2aG-1" target="3nuBFxr9cyL0pnOWT2aG-1" edge="1">
          <mxGeometry relative="1" as="geometry">
            <mxPoint x="-50" y="90" as="sourcePoint" />
            <mxPoint x="45" y="70" as="targetPoint" />
          </mxGeometry>
        </mxCell>
        <mxCell id="3nuBFxr9cyL0pnOWT2aG-5" value=":User Info Service" style="shape=umlLifeline;perimeter=lifelinePerimeter;container=1;collapsible=0;recursiveResize=0;rounded=0;shadow=0;strokeWidth=1;whiteSpace=wrap;fillColor=#fff2cc;strokeColor=#A30000;" parent="1" vertex="1">
          <mxGeometry x="160" y="10" width="90" height="350" as="geometry" />
        </mxCell>
        <mxCell id="zGPAttkn5gBIONhjLWev-16" value="&lt;font style=&quot;font-size: 13px&quot;&gt;&lt;b&gt;Asynchronous Process&lt;/b&gt;&lt;/font&gt;" style="text;html=1;strokeColor=none;fillColor=none;align=center;verticalAlign=middle;whiteSpace=wrap;rounded=0;labelBackgroundColor=#CCCCCC;fontSize=12;" vertex="1" parent="3nuBFxr9cyL0pnOWT2aG-5">
          <mxGeometry x="-60" y="190" width="120" height="30" as="geometry" />
        </mxCell>
        <mxCell id="3nuBFxr9cyL0pnOWT2aG-8" value="2. Makes the request to&#xa;update the user location" style="verticalAlign=bottom;endArrow=block;shadow=0;strokeWidth=1;exitX=0.5;exitY=0.371;exitDx=0;exitDy=0;exitPerimeter=0;" parent="1" source="3nuBFxr9cyL0pnOWT2aG-1" edge="1">
          <mxGeometry relative="1" as="geometry">
            <mxPoint x="100" y="130" as="sourcePoint" />
            <mxPoint x="190" y="140" as="targetPoint" />
          </mxGeometry>
        </mxCell>
        <mxCell id="3nuBFxr9cyL0pnOWT2aG-9" value="4. Provides&#xa;confirmation to user" style="verticalAlign=bottom;endArrow=block;shadow=0;strokeWidth=1;" parent="1" edge="1">
          <mxGeometry relative="1" as="geometry">
            <mxPoint x="100" y="190" as="sourcePoint" />
            <mxPoint x="20" y="190" as="targetPoint" />
          </mxGeometry>
        </mxCell>
        <mxCell id="zGPAttkn5gBIONhjLWev-3" style="edgeStyle=orthogonalEdgeStyle;rounded=0;orthogonalLoop=1;jettySize=auto;html=1;dashed=1;fontSize=11;startArrow=none;startFill=0;endArrow=oval;endFill=1;strokeColor=#A30000;strokeWidth=1;" edge="1" parent="1" source="zGPAttkn5gBIONhjLWev-1">
          <mxGeometry relative="1" as="geometry">
            <mxPoint x="25" y="360" as="targetPoint" />
          </mxGeometry>
        </mxCell>
        <mxCell id="zGPAttkn5gBIONhjLWev-1" value="" style="shape=umlActor;verticalLabelPosition=bottom;verticalAlign=top;html=1;outlineConnect=0;labelBackgroundColor=#CCCCCC;fontSize=14;strokeColor=#A30000;strokeWidth=1;fillColor=#fff2cc;" vertex="1" parent="1">
          <mxGeometry x="10" y="10" width="30" height="40" as="geometry" />
        </mxCell>
        <mxCell id="zGPAttkn5gBIONhjLWev-2" value="&lt;font style=&quot;font-size: 11px&quot;&gt;Bob&lt;/font&gt;" style="text;html=1;strokeColor=none;fillColor=none;align=center;verticalAlign=middle;whiteSpace=wrap;rounded=0;labelBackgroundColor=none;fontSize=14;" vertex="1" parent="1">
          <mxGeometry x="-5" y="50" width="60" height="30" as="geometry" />
        </mxCell>
        <mxCell id="zGPAttkn5gBIONhjLWev-4" value=":Elastic Search Updation Queue" style="shape=umlLifeline;perimeter=lifelinePerimeter;container=1;collapsible=0;recursiveResize=0;rounded=0;shadow=0;strokeWidth=1;whiteSpace=wrap;fillColor=#fff2cc;strokeColor=#A30000;" vertex="1" parent="1">
          <mxGeometry x="310" y="10" width="90" height="350" as="geometry" />
        </mxCell>
        <mxCell id="zGPAttkn5gBIONhjLWev-5" value=":ES Gateway" style="shape=umlLifeline;perimeter=lifelinePerimeter;container=1;collapsible=0;recursiveResize=0;rounded=0;shadow=0;strokeWidth=1;whiteSpace=wrap;fillColor=#fff2cc;strokeColor=#A30000;" vertex="1" parent="1">
          <mxGeometry x="460" y="10" width="60" height="350" as="geometry" />
        </mxCell>
        <mxCell id="zGPAttkn5gBIONhjLWev-6" value=":ES Coordinating Nodes" style="shape=umlLifeline;perimeter=lifelinePerimeter;container=1;collapsible=0;recursiveResize=0;rounded=0;shadow=0;strokeWidth=1;whiteSpace=wrap;fillColor=#fff2cc;strokeColor=#A30000;" vertex="1" parent="1">
          <mxGeometry x="580" y="10" width="70" height="350" as="geometry" />
        </mxCell>
        <mxCell id="zGPAttkn5gBIONhjLWev-7" value=":ES Data Node" style="shape=umlLifeline;perimeter=lifelinePerimeter;container=1;collapsible=0;recursiveResize=0;rounded=0;shadow=0;strokeWidth=1;whiteSpace=wrap;fillColor=#fff2cc;strokeColor=#A30000;" vertex="1" parent="1">
          <mxGeometry x="700" y="10" width="60" height="350" as="geometry" />
        </mxCell>
        <mxCell id="zGPAttkn5gBIONhjLWev-8" value="3. Places the asynchronous request to update user location index" style="verticalAlign=bottom;endArrow=block;shadow=0;strokeWidth=1;" edge="1" parent="1">
          <mxGeometry relative="1" as="geometry">
            <mxPoint x="100" y="160" as="sourcePoint" />
            <mxPoint x="355" y="160" as="targetPoint" />
          </mxGeometry>
        </mxCell>
        <mxCell id="zGPAttkn5gBIONhjLWev-9" value="1. Reads the request to update the user&#39;s index" style="verticalAlign=bottom;endArrow=block;shadow=0;strokeWidth=1;exitX=0.478;exitY=0.603;exitDx=0;exitDy=0;exitPerimeter=0;" edge="1" parent="1" source="zGPAttkn5gBIONhjLWev-4">
          <mxGeometry relative="1" as="geometry">
            <mxPoint x="360" y="207" as="sourcePoint" />
            <mxPoint x="490" y="221" as="targetPoint" />
          </mxGeometry>
        </mxCell>
        <mxCell id="zGPAttkn5gBIONhjLWev-10" value="2. Worker node reads the request to&#xa;update the index in which user lies" style="verticalAlign=bottom;endArrow=block;shadow=0;strokeWidth=1;exitX=0.517;exitY=0.769;exitDx=0;exitDy=0;exitPerimeter=0;" edge="1" parent="1" source="zGPAttkn5gBIONhjLWev-5">
          <mxGeometry relative="1" as="geometry">
            <mxPoint x="363.02" y="231.04999999999995" as="sourcePoint" />
            <mxPoint x="615" y="279" as="targetPoint" />
          </mxGeometry>
        </mxCell>
        <mxCell id="zGPAttkn5gBIONhjLWev-11" value="3. Moves the user to the index&#xa;corresponding to the new geo-shard" style="verticalAlign=bottom;endArrow=block;shadow=0;strokeWidth=1;exitX=0.5;exitY=0.883;exitDx=0;exitDy=0;exitPerimeter=0;" edge="1" parent="1" source="zGPAttkn5gBIONhjLWev-6">
          <mxGeometry relative="1" as="geometry">
            <mxPoint x="610" y="306" as="sourcePoint" />
            <mxPoint x="730" y="319" as="targetPoint" />
          </mxGeometry>
        </mxCell>
        <mxCell id="zGPAttkn5gBIONhjLWev-12" value="" style="rounded=0;whiteSpace=wrap;html=1;labelBackgroundColor=none;fontSize=11;strokeColor=#000000;strokeWidth=3;fillColor=none;" vertex="1" parent="1">
          <mxGeometry x="420" y="230" width="370" height="100" as="geometry" />
        </mxCell>
        <mxCell id="zGPAttkn5gBIONhjLWev-14" value="&lt;span style=&quot;background-color: rgb(204 , 204 , 204)&quot;&gt;&lt;b&gt;&lt;font style=&quot;font-size: 12px&quot;&gt;Within Elastic Search Cluster&lt;/font&gt;&lt;/b&gt;&lt;/span&gt;" style="text;html=1;strokeColor=none;fillColor=none;align=center;verticalAlign=middle;whiteSpace=wrap;rounded=0;labelBackgroundColor=none;fontSize=11;" vertex="1" parent="1">
          <mxGeometry x="420" y="220" width="180" height="30" as="geometry" />
        </mxCell>
        <mxCell id="zGPAttkn5gBIONhjLWev-15" value="" style="endArrow=none;html=1;rounded=0;fontSize=12;strokeColor=#000000;strokeWidth=3;" edge="1" parent="1">
          <mxGeometry width="50" height="50" relative="1" as="geometry">
            <mxPoint x="10" y="200" as="sourcePoint" />
            <mxPoint x="790" y="200" as="targetPoint" />
          </mxGeometry>
        </mxCell>
        <mxCell id="zGPAttkn5gBIONhjLWev-17" value="" style="endArrow=none;html=1;rounded=0;fontSize=12;strokeColor=#000000;strokeWidth=3;exitX=0.25;exitY=0.333;exitDx=0;exitDy=0;exitPerimeter=0;" edge="1" parent="1" source="zGPAttkn5gBIONhjLWev-2">
          <mxGeometry width="50" height="50" relative="1" as="geometry">
            <mxPoint x="20" y="210" as="sourcePoint" />
            <mxPoint x="790" y="60" as="targetPoint" />
          </mxGeometry>
        </mxCell>
        <mxCell id="zGPAttkn5gBIONhjLWev-18" value="&lt;font style=&quot;font-size: 13px&quot;&gt;&lt;b&gt;Synchronous Process&lt;/b&gt;&lt;/font&gt;" style="text;html=1;strokeColor=none;fillColor=none;align=center;verticalAlign=middle;whiteSpace=wrap;rounded=0;labelBackgroundColor=#CCCCCC;fontSize=12;" vertex="1" parent="1">
          <mxGeometry x="365" y="60" width="120" height="30" as="geometry" />
        </mxCell>
      </root>
    </mxGraphModel>
  </diagram>
</mxfile>
